<svg viewBox="0 0 100 47" fill="none" xmlns="http://www.w3.org/2000/svg">
  <path
    d="M51.36 45.1393H52.5241V45.2372C52.5241 45.4548 52.5023 45.6398 52.4479 45.803C52.3935 45.9553 52.3174 46.0967 52.1977 46.2273C51.9366 46.521 51.5993 46.6733 51.1968 46.6733C50.8051 46.6733 50.4678 46.5319 50.185 46.249C49.9021 45.9662 49.7607 45.618 49.7607 45.2155C49.7607 44.802 49.9021 44.4539 50.1959 44.171C50.4787 43.8882 50.8269 43.7358 51.2403 43.7358C51.4579 43.7358 51.6646 43.7794 51.8604 43.8664C52.0454 43.9534 52.2195 44.1057 52.4044 44.3016L52.0998 44.5953C51.8713 44.2907 51.5884 44.1384 51.2512 44.1384C50.9466 44.1384 50.7072 44.2472 50.5005 44.443C50.2938 44.6497 50.1959 44.9 50.1959 45.2046C50.1959 45.5201 50.3047 45.7812 50.5331 45.977C50.7398 46.162 50.9683 46.2599 51.2185 46.2599C51.4253 46.2599 51.6211 46.1946 51.7843 46.0423C51.9475 45.9009 52.0454 45.7268 52.0672 45.531H51.36V45.1393Z"
    fill="currentColor" />
  <path
    d="M54.6021 43.7902V45.4874C54.6021 45.7268 54.6456 45.9117 54.7217 46.0205C54.8414 46.1837 55.0046 46.2599 55.2222 46.2599C55.4398 46.2599 55.603 46.1728 55.7226 46.0205C55.7988 45.9117 55.8423 45.7377 55.8423 45.4874V43.7902H56.2666V45.6071C56.2666 45.9009 56.1796 46.1511 55.9838 46.3469C55.777 46.5645 55.5159 46.6733 55.2113 46.6733C54.9067 46.6733 54.6564 46.5645 54.4497 46.3469C54.2648 46.1511 54.1669 45.9117 54.1669 45.6071V43.7902H54.6021Z"
    fill="currentColor" />
  <path
    d="M59.6175 44.1928H58.486V44.8673H59.5849V45.2698H58.486V46.2164H59.6175V46.6189H58.0617V43.7902H59.6175V44.1928Z"
    fill="currentColor" />
  <path
    d="M62.8814 44.2145L62.5332 44.4212C62.4679 44.3125 62.4027 44.2363 62.3483 44.2037C62.283 44.1601 62.2068 44.1493 62.1089 44.1493C61.9892 44.1493 61.8913 44.1819 61.8152 44.2472C61.739 44.3125 61.6955 44.3995 61.6955 44.4974C61.6955 44.6388 61.7934 44.7476 62.0001 44.8347L62.283 44.9543C62.5115 45.0523 62.6855 45.1611 62.7835 45.2916C62.8923 45.4222 62.9466 45.5854 62.9466 45.7812C62.9466 46.0423 62.8596 46.2599 62.6855 46.4231C62.5115 46.5972 62.2939 46.6842 62.0328 46.6842C61.7934 46.6842 61.5867 46.608 61.4235 46.4666C61.2603 46.3252 61.1733 46.1185 61.1298 45.8573L61.5649 45.7594C61.5867 45.9226 61.6193 46.0423 61.6629 46.1076C61.7499 46.2273 61.8804 46.2925 62.0436 46.2925C62.1742 46.2925 62.283 46.249 62.37 46.162C62.4571 46.0749 62.5006 45.9553 62.5006 45.8247C62.5006 45.7703 62.4897 45.7159 62.4788 45.6724C62.4679 45.6289 62.4353 45.5854 62.4027 45.5418C62.37 45.4983 62.3265 45.4657 62.2721 45.433C62.2177 45.4004 62.1633 45.3678 62.0872 45.3351L61.8152 45.2263C61.4344 45.0631 61.2386 44.8238 61.2386 44.5083C61.2386 44.2907 61.3256 44.1166 61.4779 43.9752C61.6411 43.8338 61.8369 43.7576 62.0872 43.7576C62.4462 43.7358 62.7073 43.8881 62.8814 44.2145Z"
    fill="currentColor" />
  <path d="M65.4163 44.1928V46.6189H64.992V44.1928H64.3392V43.7902H66.0582V44.1928H65.4163Z" fill="currentColor" />
  <path
    d="M70.2577 44.8891H71.4762V43.7902H71.9006V46.6189H71.4762V45.3025H70.2577V46.6189H69.8334V43.7902H70.2577V44.8891Z"
    fill="currentColor" />
  <path
    d="M73.5433 45.1828C73.5433 44.7912 73.6848 44.443 73.9785 44.1601C74.2723 43.8773 74.6204 43.7358 75.023 43.7358C75.4255 43.7358 75.7736 43.8773 76.0565 44.171C76.3503 44.4539 76.4917 44.802 76.4917 45.2046C76.4917 45.6071 76.3503 45.9553 76.0565 46.2381C75.7628 46.521 75.4146 46.6624 75.0012 46.6624C74.6422 46.6624 74.3049 46.5319 74.022 46.2817C73.7065 46.0097 73.5433 45.6398 73.5433 45.1828ZM73.9785 45.1937C73.9785 45.5092 74.0873 45.7594 74.294 45.9662C74.5007 46.1729 74.7401 46.2708 75.0121 46.2708C75.3058 46.2708 75.5561 46.1729 75.7628 45.9662C75.9695 45.7594 76.0674 45.5092 76.0674 45.2046C76.0674 44.9 75.9695 44.6497 75.7628 44.443C75.5669 44.2363 75.3167 44.1384 75.023 44.1384C74.7292 44.1384 74.479 44.2363 74.2831 44.443C74.0764 44.6497 73.9785 44.9 73.9785 45.1937Z"
    fill="currentColor" />
  <path
    d="M78.5697 43.7902V45.4874C78.5697 45.7268 78.6133 45.9117 78.6894 46.0205C78.8091 46.1837 78.9723 46.2599 79.1899 46.2599C79.4075 46.2599 79.5707 46.1728 79.6903 46.0205C79.7665 45.9117 79.81 45.7377 79.81 45.4874V43.7902H80.2343V45.6071C80.2343 45.9009 80.1473 46.1511 79.9514 46.3469C79.7447 46.5645 79.4836 46.6733 79.179 46.6733C78.8744 46.6733 78.6241 46.5645 78.4174 46.3469C78.2325 46.1511 78.1346 45.9117 78.1346 45.6071V43.7902H78.5697Z"
    fill="currentColor" />
  <path
    d="M83.6178 44.2145L83.2697 44.4212C83.2044 44.3125 83.1391 44.2363 83.0847 44.2037C83.0194 44.1601 82.9433 44.1493 82.8454 44.1493C82.7257 44.1493 82.6278 44.1819 82.5516 44.2472C82.4755 44.3125 82.4319 44.3995 82.4319 44.4974C82.4319 44.6388 82.5299 44.7476 82.7366 44.8347L83.0194 44.9543C83.2479 45.0523 83.422 45.1611 83.5199 45.2916C83.6287 45.4222 83.6831 45.5854 83.6831 45.7812C83.6831 46.0423 83.5961 46.2599 83.422 46.4231C83.2479 46.5972 83.0303 46.6842 82.7692 46.6842C82.5299 46.6842 82.3232 46.608 82.16 46.4666C81.9968 46.3252 81.9097 46.1185 81.8662 45.8573L82.3014 45.7594C82.3232 45.9226 82.3558 46.0423 82.3993 46.1076C82.4863 46.2273 82.6169 46.2925 82.7801 46.2925C82.9107 46.2925 83.0194 46.249 83.1065 46.162C83.1935 46.0749 83.237 45.9553 83.237 45.8247C83.237 45.7703 83.2262 45.7159 83.2153 45.6724C83.2044 45.6289 83.1718 45.5854 83.1391 45.5418C83.1065 45.4983 83.063 45.4657 83.0086 45.433C82.9542 45.4004 82.8998 45.3678 82.8236 45.3351L82.5516 45.2263C82.1708 45.0631 81.975 44.8238 81.975 44.5083C81.975 44.2907 82.062 44.1166 82.2144 43.9752C82.3776 43.8338 82.5734 43.7576 82.8236 43.7576C83.1826 43.7358 83.4438 43.8881 83.6178 44.2145Z"
    fill="currentColor" />
  <path
    d="M86.8817 44.1928H85.7502V44.8673H86.8491V45.2698H85.7502V46.2164H86.8817V46.6189H85.3259V43.7902H86.8817V44.1928Z"
    fill="currentColor" />
  <path
    d="M16.2951 40.5807C16.5454 40.6134 16.7521 40.5916 16.9153 40.5155C17.0784 40.4393 17.2199 40.3196 17.3287 40.1564C17.4375 39.9932 17.5354 39.8083 17.6115 39.5798C17.6768 39.384 17.7312 39.1882 17.7856 38.9814C17.7965 38.9162 17.8618 38.8726 17.9271 38.8835L19.1782 39.0467C19.2544 39.0576 19.2979 39.1229 19.287 39.199C19.2435 39.4384 19.1673 39.7104 19.0585 40.015C18.928 40.374 18.7321 40.7004 18.4602 41.005C18.1882 41.3097 17.8509 41.549 17.4266 41.7449C17.0023 41.9298 16.4801 41.9951 15.8491 41.9189C15.1963 41.8537 14.6523 41.5925 14.2171 41.1356C13.7819 40.6787 13.4556 40.1456 13.2271 39.5145C13.0095 38.8835 12.9007 38.1981 12.9007 37.4583C12.9007 36.7185 13.0095 36.0222 13.2271 35.3803C13.4447 34.7384 13.7711 34.1727 14.2171 33.7049C14.6523 33.2262 15.1963 32.9433 15.8491 32.8345C16.2298 32.7366 16.6324 32.7583 17.0784 32.878C17.4919 32.9977 17.9379 33.2262 18.3949 33.5525C18.4384 33.5852 18.4602 33.6505 18.4384 33.7049L17.8509 35.1301C17.8183 35.2171 17.7095 35.2389 17.6442 35.1736C17.394 34.9342 17.1437 34.7602 16.8826 34.6623C16.5889 34.5426 16.3169 34.5317 16.0666 34.6079C15.7947 34.6949 15.5771 34.8907 15.403 35.2062C15.2289 35.5217 15.1092 35.8916 15.0331 36.316C14.9678 36.7403 14.9352 37.1863 14.9569 37.665C14.9787 38.1437 15.0331 38.5898 15.1419 39.0032C15.2507 39.4166 15.3921 39.7648 15.5879 40.0585C15.8055 40.3414 16.034 40.5155 16.2951 40.5807Z"
    fill="currentColor" />
  <path
    d="M20.1464 40.8854C20.1573 40.4393 20.1682 39.928 20.1791 39.3623C20.19 38.7965 20.2008 38.209 20.2008 37.578C20.2008 36.947 20.2117 36.3378 20.2226 35.7394C20.2335 35.141 20.2444 34.5861 20.2444 34.0748V32.9433C20.2444 32.8672 20.2988 32.8128 20.3749 32.8237L21.8545 32.8998C21.9307 32.8998 21.9851 32.976 21.9742 33.0521C21.9198 33.3459 21.8763 33.7375 21.8545 34.238C21.8328 34.7493 21.8001 35.3042 21.7566 35.9243C21.7457 36.0222 21.8545 36.0875 21.9416 36.044C22.0177 36.0005 22.1048 35.9678 22.1809 35.9352C22.3441 35.8808 22.5182 35.8373 22.714 35.8264C23.2254 35.7829 23.6388 35.8373 23.9543 36.0114C24.2698 36.1854 24.52 36.4248 24.705 36.7403C24.879 37.0558 25.0096 37.4257 25.0749 37.85C25.1402 38.2743 25.1837 38.7204 25.1837 39.1882C25.1837 39.656 25.1619 40.1238 25.1293 40.6134C25.0966 41.0486 25.0749 41.4511 25.0422 41.8319C25.0422 41.8972 24.977 41.9516 24.9117 41.9516L23.4647 41.8972C23.3885 41.8972 23.3342 41.8319 23.345 41.7558C23.4647 40.9072 23.5409 40.1565 23.5844 39.4819C23.6279 38.7748 23.5953 38.1982 23.4973 37.763C23.3994 37.3278 23.2036 37.0449 22.9207 36.9144C22.6487 36.7947 22.2571 36.86 21.7566 37.0993C21.7131 37.1211 21.6913 37.1537 21.6913 37.1972C21.6696 37.4801 21.6587 37.8283 21.6587 38.2417C21.6587 38.6877 21.6587 39.1447 21.6696 39.6125C21.6696 40.0694 21.6805 40.5046 21.6913 40.918C21.7022 41.2553 21.7131 41.5273 21.7349 41.734C21.7457 41.8102 21.6805 41.8646 21.6152 41.8646L20.2226 41.9081C20.1464 41.9081 20.092 41.8428 20.092 41.7775C20.1247 41.5491 20.1356 41.2444 20.1464 40.8854Z"
    fill="currentColor" />
  <path
    d="M27.2617 33.2479C27.6316 33.2044 27.8927 33.2697 28.0559 33.4655C28.2191 33.6614 28.2952 33.8898 28.2844 34.1509C28.2735 34.412 28.1756 34.6623 28.0015 34.9016C27.8274 35.141 27.5772 35.2715 27.2508 35.2933C26.9788 35.315 26.7503 35.228 26.5763 35.0322C26.4022 34.8363 26.2934 34.6079 26.2608 34.3576C26.2281 34.1074 26.2934 33.8681 26.4348 33.6396C26.6089 33.4111 26.87 33.2806 27.2617 33.2479ZM26.5001 41.9081C26.424 41.9081 26.3696 41.8428 26.3696 41.7775C26.3696 41.7122 26.3804 41.6143 26.3804 41.4946C26.3913 41.2444 26.4022 40.918 26.4022 40.5372C26.4022 40.1565 26.4022 39.7322 26.4022 39.2643C26.4022 38.7965 26.4022 38.3504 26.3913 37.9044C26.3804 37.4583 26.3804 37.0449 26.3913 36.675C26.3913 36.3595 26.4022 36.0984 26.4131 35.8917C26.4131 35.8264 26.4675 35.772 26.5436 35.772L27.7948 35.7829C27.8601 35.7829 27.9145 35.8373 27.9145 35.9134V36.4356C27.9145 36.762 27.9145 37.1428 27.9253 37.5671C27.9253 37.9914 27.9362 38.4484 27.9362 38.9271C27.9362 39.4058 27.9362 39.8518 27.9471 40.2653C27.9471 40.6787 27.958 41.0377 27.958 41.3314V41.7558C27.958 41.821 27.9036 41.8754 27.8383 41.8754L26.5001 41.9081Z"
    fill="currentColor" />
  <path
    d="M31.755 41.9081C31.1675 41.9734 30.667 41.8754 30.2645 41.6034C29.8619 41.3315 29.5573 40.9616 29.3615 40.5155C29.1547 40.0585 29.0568 39.5581 29.0677 39.0032C29.0677 38.4484 29.1765 37.9262 29.3832 37.4366C29.5899 36.947 29.9054 36.5227 30.3189 36.1854C30.7323 35.8482 31.2654 35.6523 31.8964 35.5979C31.9073 35.5979 31.9182 35.5979 31.9182 35.5979C32.1466 35.6197 32.3642 35.6741 32.5601 35.7611C32.6906 35.8155 32.8212 35.8917 32.9408 35.9787C33.017 36.0331 33.1367 35.9896 33.1367 35.8808C33.1367 35.8373 33.1367 35.7938 33.1475 35.7611C33.1475 35.7176 33.1475 35.685 33.1584 35.6523C33.1693 35.5762 33.2455 35.5218 33.3216 35.5435L34.5075 35.8808C34.5728 35.9026 34.6054 35.957 34.5945 36.0222C34.5728 36.1745 34.551 36.3813 34.5401 36.6424C34.5293 36.9688 34.5184 37.3387 34.5184 37.7521C34.5184 38.1655 34.5293 38.5789 34.5401 39.025C34.5619 39.4602 34.5728 39.8736 34.5945 40.2544C34.6163 40.6352 34.6272 40.9724 34.638 41.2444C34.6489 41.4294 34.6489 41.5708 34.6489 41.6687C34.6489 41.734 34.5945 41.7884 34.5293 41.7993L32.8973 41.8863C32.8973 41.8754 32.8973 41.8319 32.8864 41.7666C32.8864 41.7558 32.8864 41.7449 32.8864 41.7231C32.8864 41.6252 32.7776 41.5708 32.7015 41.6143C32.5927 41.6687 32.4839 41.7231 32.3642 41.7558C32.201 41.8428 31.9943 41.8863 31.755 41.9081ZM31.755 36.6859C31.5265 36.6968 31.3415 36.8056 31.1892 37.0232C31.0369 37.2407 30.9172 37.5019 30.8411 37.8065C30.7649 38.1111 30.7214 38.4484 30.7214 38.7965C30.7214 39.1447 30.7649 39.4711 30.8411 39.7648C30.9172 40.0585 31.0369 40.3088 31.211 40.4937C31.3742 40.6787 31.5809 40.7657 31.8311 40.744C32.1031 40.7331 32.3207 40.6243 32.4839 40.4176C32.6471 40.2109 32.7668 39.9606 32.8429 39.656C32.9191 39.3514 32.9517 39.025 32.93 38.666C32.9082 38.3069 32.8538 37.9806 32.7668 37.6868C32.6688 37.3931 32.5383 37.1428 32.3642 36.9579C32.201 36.762 31.9943 36.675 31.755 36.6859Z"
    fill="currentColor" />
  <path
    d="M36.2048 40.6678C36.2048 40.1565 36.2156 39.6125 36.2156 39.0359C36.2156 38.4593 36.2156 37.8718 36.2156 37.2734V35.772C36.2156 35.6958 36.2809 35.6414 36.3462 35.6523C36.8249 35.685 37.1622 35.6958 37.3689 35.6958C37.5973 35.6958 37.7388 35.6958 37.7932 35.6958C37.7932 35.7067 37.7932 35.7394 37.7823 35.7938C37.7823 35.8264 37.7823 35.8808 37.7714 35.957C37.7714 36.0549 37.8693 36.1201 37.9564 36.0766C38.0543 36.0222 38.1522 35.9787 38.2392 35.9461C38.3916 35.8917 38.5656 35.8482 38.7615 35.8373C39.2728 35.7938 39.6862 35.8482 40.0017 36.0222C40.3172 36.1963 40.5675 36.4357 40.7524 36.7512C40.9265 37.0667 41.057 37.4366 41.1114 37.8609C41.1658 38.2852 41.2094 38.7312 41.2094 39.1991C41.2094 39.6669 41.1876 40.1347 41.1441 40.6243C41.1114 41.0595 41.0788 41.462 41.057 41.8428C41.057 41.9081 40.9918 41.9625 40.9265 41.9625L39.5013 41.9081C39.4251 41.9081 39.3707 41.8428 39.3816 41.7666C39.5013 40.918 39.5774 40.1673 39.6209 39.4928C39.6645 38.7856 39.6318 38.209 39.5339 37.7738C39.436 37.3387 39.2402 37.0558 38.9573 36.9252C38.6853 36.8056 38.3045 36.86 37.8041 37.0993C37.7605 37.1211 37.7388 37.1646 37.7279 37.2081C37.717 37.491 37.7061 37.8391 37.7061 38.2525C37.6953 38.6986 37.6953 39.1664 37.7061 39.6234C37.7061 40.0912 37.717 40.5264 37.7279 40.9398C37.7388 41.2771 37.7497 41.5491 37.7714 41.7558C37.7823 41.8319 37.717 41.8863 37.6517 41.8863L36.3027 41.9298C36.2265 41.9298 36.1721 41.8754 36.1721 41.7993C36.1939 41.4838 36.2048 41.1139 36.2048 40.6678Z"
    fill="currentColor" />
  <path
    d="M44.669 41.9081C44.1032 41.8755 43.6354 41.7014 43.2546 41.3968C42.8847 41.0922 42.6127 40.7114 42.4387 40.2653C42.2646 39.8192 42.1884 39.3405 42.1993 38.8292C42.2102 38.3179 42.319 37.8283 42.5148 37.3822C42.7107 36.9362 43.0044 36.5445 43.3743 36.2181C43.7442 35.8917 44.2012 35.6959 44.7343 35.6197C44.7451 35.6197 44.756 35.6197 44.7669 35.6197C45.0715 35.6415 45.3544 35.7068 45.6264 35.7938C45.8549 35.87 46.0616 35.9679 46.2356 36.0984C46.3009 36.142 46.388 36.1202 46.4206 36.044C46.4859 35.9026 46.5403 35.772 46.5947 35.6524C46.6164 35.6089 46.6382 35.5653 46.6491 35.5327C46.6817 35.4565 46.7687 35.4348 46.834 35.4783L47.9981 36.2834C48.0634 36.3269 48.0743 36.4139 48.0199 36.4792C47.9546 36.5445 47.8784 36.6206 47.7914 36.7186C47.7044 36.8165 47.6173 36.9144 47.5194 37.0232C47.4433 37.1102 47.378 37.1973 47.3236 37.2952C47.3018 37.3278 47.3018 37.3713 47.3127 37.404C47.4433 37.7195 47.5303 38.0568 47.5847 38.4049C47.6391 38.7748 47.6391 39.1447 47.5847 39.4929C47.5303 39.8519 47.4324 40.1891 47.2692 40.5047C47.1386 40.7766 46.9754 41.0051 46.7796 41.2118C46.7252 41.2662 46.7361 41.3641 46.8014 41.4077C47.1822 41.6252 47.4541 41.8972 47.5956 42.2127C47.7588 42.5718 47.7805 42.9199 47.65 43.2898C47.5194 43.6488 47.2366 43.9752 46.8014 44.2799C46.3662 44.5845 45.7896 44.7803 45.0498 44.8782C44.6799 44.9326 44.2991 44.9326 43.8857 44.8674C43.581 44.813 43.2438 44.7259 42.8847 44.5954C42.6998 44.5301 42.6345 44.3125 42.7542 44.1493L43.1567 43.5945C43.1894 43.5401 43.2655 43.5292 43.3199 43.5618C43.8204 43.8338 44.31 43.9208 44.7887 43.8229C45.0715 43.7576 45.3 43.638 45.4523 43.4965C45.6046 43.3551 45.7134 43.181 45.7678 42.9961C45.8113 42.8111 45.8113 42.6153 45.7461 42.4195C45.6917 42.2454 45.6046 42.0822 45.4632 41.9516C45.4414 41.9299 45.3979 41.919 45.3653 41.919C45.1912 41.9299 44.941 41.9299 44.669 41.9081ZM44.8757 36.7077C44.6255 36.6968 44.4079 36.7838 44.2229 36.9797C44.038 37.1755 43.8857 37.4257 43.766 37.7195C43.6572 38.0132 43.581 38.3396 43.5484 38.6986C43.5157 39.0577 43.5375 39.3841 43.6028 39.6887C43.6681 39.9933 43.7877 40.2544 43.9509 40.472C44.1141 40.6896 44.3317 40.7984 44.6037 40.8093C44.8757 40.8202 45.1042 40.7331 45.2782 40.5373C45.4523 40.3415 45.5937 40.1021 45.6917 39.7975C45.7896 39.5037 45.844 39.1773 45.8549 38.8183C45.8549 38.4593 45.8331 38.1329 45.7678 37.8283C45.7025 37.5237 45.5937 37.2625 45.4414 37.045C45.2891 36.8274 45.1042 36.7186 44.8757 36.7077Z"
    fill="currentColor" />
  <path
    d="M53.5468 38.753C53.5794 38.8618 53.7426 38.8727 53.7861 38.7639C53.8405 38.6333 53.8949 38.4701 53.9493 38.2852C54.069 37.9153 54.1886 37.5127 54.3192 37.0558C54.4498 36.5988 54.5803 36.131 54.7109 35.6414C54.8414 35.1519 54.9611 34.7167 55.0699 34.3141C55.1787 33.9116 55.2766 33.5743 55.3636 33.3241C55.4507 33.063 55.5051 32.9324 55.5377 32.9324L57.7898 32.9433C57.8659 32.9433 57.9203 32.9977 57.9203 33.0739C57.9095 33.4111 57.8877 33.8028 57.8659 34.2815C57.8442 34.8146 57.8224 35.3803 57.8007 36.0005C57.7789 36.6097 57.768 37.2299 57.7571 37.8609C57.7463 38.4919 57.7354 39.0794 57.7354 39.6234C57.7354 40.1673 57.7463 40.6352 57.7571 41.0377C57.768 41.3315 57.7898 41.5599 57.8115 41.7122C57.8224 41.7884 57.768 41.8537 57.6919 41.8537L56.2993 41.9081C56.234 41.9081 56.1687 41.8537 56.1687 41.7884C56.1687 41.7122 56.1579 41.6034 56.1579 41.462C56.147 41.2118 56.147 40.8854 56.1361 40.5046C56.1252 40.1238 56.1252 39.6886 56.1361 39.2208C56.1361 38.753 56.147 38.2852 56.147 37.8282C56.147 37.3713 56.147 36.9252 56.1579 36.5118C56.1579 36.4683 56.1579 36.4357 56.1579 36.3921C56.1579 36.2507 55.9511 36.2181 55.9076 36.3595C55.8859 36.4248 55.875 36.4901 55.8532 36.5553C55.7336 36.9688 55.603 37.4039 55.4616 37.85C55.3201 38.2961 55.1896 38.7421 55.059 39.1882C54.9285 39.6342 54.8088 40.0368 54.7 40.4067C54.5912 40.7766 54.4933 41.0812 54.4171 41.3315C54.3627 41.4946 54.3301 41.6252 54.3083 41.7014C54.2974 41.7558 54.2431 41.7884 54.1887 41.7993L53.1225 41.8428C53.0681 41.8428 53.0137 41.8102 52.9919 41.7558C52.9593 41.647 52.9157 41.4838 52.8505 41.2444C52.7634 40.9289 52.6546 40.559 52.535 40.1347C52.4153 39.7104 52.2739 39.2861 52.1215 38.8509C52.0671 38.6986 52.0127 38.5463 51.9583 38.4049C51.9039 38.2743 51.7081 38.3069 51.719 38.4593C51.7299 38.6116 51.7407 38.7748 51.7516 38.9488C51.7843 39.4384 51.806 39.8954 51.8278 40.3414C51.8495 40.7875 51.8604 41.1574 51.8713 41.4729C51.8822 41.7775 51.8713 41.9298 51.8495 41.9298L49.8042 41.9407C49.7389 41.9407 49.6845 41.8863 49.6736 41.821C49.6628 41.7014 49.6519 41.4947 49.6519 41.2118C49.641 40.8092 49.6301 40.3197 49.6301 39.7539C49.6192 39.1882 49.6192 38.568 49.6192 37.9044C49.6192 37.2407 49.6192 36.5988 49.6084 35.9678C49.5975 35.3368 49.5975 34.7711 49.5866 34.2489C49.5757 33.8137 49.5648 33.4655 49.554 33.2044C49.554 33.1391 49.6084 33.0847 49.6736 33.0739L51.5667 32.9324C51.632 32.9324 51.6864 32.976 51.6972 33.0412C51.7625 33.422 51.8604 33.8572 52.0127 34.3468C52.1759 34.8908 52.3609 35.4565 52.5676 36.0331C52.7634 36.6097 52.9701 37.1755 53.166 37.7086C53.3292 38.0893 53.4488 38.4484 53.5468 38.753Z"
    fill="currentColor" />
  <path
    d="M61.5324 41.9081C60.9449 41.9734 60.4444 41.8754 60.0419 41.6034C59.6393 41.3315 59.3347 40.9616 59.1389 40.5155C58.943 40.0585 58.8342 39.5581 58.8451 39.0032C58.8451 38.4484 58.9539 37.9262 59.1606 37.4366C59.3673 36.947 59.6828 36.5227 60.1071 36.1854C60.5206 35.8482 61.0537 35.6523 61.6847 35.5979C61.6955 35.5979 61.7064 35.5979 61.7064 35.5979C61.9349 35.6197 62.1525 35.6741 62.3483 35.7611C62.4789 35.8155 62.6094 35.8917 62.7291 35.9787C62.8053 36.0331 62.9249 35.9896 62.9249 35.8808C62.9249 35.8373 62.9249 35.7938 62.9358 35.7611C62.9358 35.7176 62.9358 35.685 62.9467 35.6523C62.9576 35.5762 63.0337 35.5218 63.1099 35.5435L64.2958 35.8808C64.361 35.9026 64.3937 35.957 64.3828 36.0222C64.361 36.1745 64.3393 36.3813 64.3284 36.6424C64.3175 36.9688 64.3066 37.3387 64.3066 37.7521C64.3066 38.1655 64.3175 38.5789 64.3284 39.025C64.3502 39.4602 64.361 39.8736 64.3828 40.2544C64.4046 40.6352 64.4154 40.9724 64.4263 41.2444C64.4372 41.4294 64.4372 41.5708 64.4372 41.6687C64.4372 41.734 64.3828 41.7884 64.3175 41.7993L62.6856 41.8863C62.6856 41.8754 62.6856 41.8319 62.6747 41.7666C62.6747 41.7558 62.6747 41.7449 62.6747 41.7231C62.6747 41.6252 62.5659 41.5708 62.4898 41.6143C62.381 41.6687 62.2722 41.7231 62.1525 41.7558C61.9893 41.8428 61.7717 41.8863 61.5324 41.9081ZM61.5324 36.6859C61.3039 36.6968 61.1189 36.8056 60.9666 37.0232C60.8143 37.2407 60.6946 37.5019 60.6185 37.8065C60.5423 38.1111 60.4988 38.4484 60.4988 38.7965C60.4988 39.1447 60.5314 39.4711 60.6185 39.7648C60.7055 40.0585 60.8143 40.3088 60.9775 40.4937C61.1407 40.6787 61.3474 40.7657 61.5976 40.744C61.8696 40.7331 62.0872 40.6243 62.2504 40.4176C62.4136 40.2109 62.5333 39.9606 62.6094 39.656C62.6856 39.3514 62.7182 39.025 62.6965 38.666C62.6747 38.3069 62.6203 37.9806 62.5333 37.6868C62.4354 37.3931 62.3048 37.1428 62.1307 36.9579C61.9784 36.762 61.7717 36.675 61.5324 36.6859Z"
    fill="currentColor" />
  <path
    d="M66.6675 33.2479C67.0374 33.2044 67.2985 33.2697 67.4617 33.4655C67.6249 33.6614 67.7011 33.8898 67.6902 34.1509C67.6793 34.412 67.5814 34.6623 67.4073 34.9016C67.2332 35.141 66.983 35.2715 66.6566 35.2933C66.3846 35.315 66.1562 35.228 65.9821 35.0322C65.808 34.8363 65.6992 34.6079 65.6666 34.3576C65.634 34.1074 65.6992 33.8681 65.8407 33.6396C66.0039 33.4111 66.2758 33.2806 66.6675 33.2479ZM65.9059 41.9081C65.8298 41.9081 65.7754 41.8428 65.7754 41.7775C65.7754 41.7122 65.7863 41.6143 65.7971 41.4946C65.808 41.2444 65.8189 40.918 65.8189 40.5372C65.8189 40.1565 65.8189 39.7322 65.8189 39.2643C65.8189 38.7965 65.8189 38.3504 65.808 37.9044C65.7971 37.4583 65.7971 37.0449 65.808 36.675C65.808 36.3595 65.8189 36.0984 65.8298 35.8917C65.8298 35.8264 65.8842 35.772 65.9603 35.772L67.2115 35.7829C67.2768 35.7829 67.3312 35.8373 67.3312 35.9134V36.4356C67.3312 36.762 67.3312 37.1428 67.342 37.5671C67.342 37.9914 67.3529 38.4484 67.3529 38.9271C67.3529 39.4058 67.3529 39.8518 67.3638 40.2653C67.3638 40.6787 67.3747 41.0377 67.3747 41.3314V41.7558C67.3747 41.821 67.3203 41.8754 67.255 41.8754L65.9059 41.9081Z"
    fill="currentColor" />
  <path
    d="M71.8353 41.1465C71.8353 40.744 71.8353 40.2653 71.8462 39.6995C71.8462 39.1338 71.8571 38.5245 71.8679 37.8609C71.8788 37.1972 71.8897 36.5553 71.8897 35.9352C71.8897 35.3151 71.9006 34.7493 71.9006 34.238C71.9006 33.8028 71.9006 33.4438 71.8897 33.1827C71.8897 33.1174 71.9441 33.063 72.0094 33.0521L73.8371 32.9107C73.9133 32.8998 73.9677 32.9651 73.9677 33.0304V34.2597C73.9677 34.8037 73.9677 35.3803 73.9677 36.0005C73.9677 36.6206 73.9677 37.2407 73.9786 37.8609C73.9786 38.4919 74.0003 39.0685 74.0112 39.6125C74.033 40.1565 74.0439 40.6134 74.0765 41.0051C74.0982 41.2879 74.12 41.5055 74.1418 41.6579C74.1526 41.734 74.0982 41.8102 74.0221 41.8102L71.9767 41.8754C71.9115 41.8754 71.8571 41.8319 71.8462 41.7666C71.8353 41.647 71.8353 41.4403 71.8353 41.1465Z"
    fill="currentColor" />
  <path
    d="M75.5888 40.6678C75.5888 40.1565 75.5996 39.6125 75.5996 39.0359C75.5996 38.4593 75.5996 37.8718 75.5996 37.2734V35.772C75.5996 35.6958 75.6649 35.6414 75.7302 35.6523C76.2089 35.685 76.5462 35.6958 76.7529 35.6958C76.9813 35.6958 77.1228 35.6958 77.1772 35.6958C77.1772 35.7067 77.1772 35.7394 77.1663 35.7938C77.1663 35.8264 77.1663 35.8808 77.1554 35.957C77.1554 36.0549 77.2533 36.1201 77.3404 36.0766C77.4383 36.0222 77.5362 35.9787 77.6232 35.9461C77.7756 35.8917 77.9496 35.8482 78.1455 35.8373C78.6568 35.7938 79.0702 35.8482 79.3857 36.0222C79.7012 36.1963 79.9515 36.4357 80.1364 36.7512C80.3105 37.0667 80.441 37.4366 80.4954 37.8609C80.5498 38.2852 80.5934 38.7312 80.5934 39.1991C80.5934 39.6669 80.5716 40.1347 80.5281 40.6243C80.4954 41.0595 80.4628 41.462 80.441 41.8428C80.441 41.9081 80.3758 41.9625 80.3105 41.9625L78.8853 41.9081C78.8091 41.9081 78.7547 41.8428 78.7656 41.7666C78.8853 40.918 78.9614 40.1673 79.0049 39.4928C79.0485 38.7856 79.0158 38.209 78.9179 37.7738C78.82 37.3387 78.6242 37.0558 78.3413 36.9252C78.0693 36.8056 77.6885 36.86 77.1881 37.0993C77.1445 37.1211 77.1228 37.1646 77.1119 37.2081C77.101 37.491 77.0901 37.8391 77.0901 38.2525C77.0793 38.6986 77.0793 39.1664 77.0901 39.6234C77.0901 40.0912 77.101 40.5264 77.1119 40.9398C77.1228 41.2771 77.1337 41.5491 77.1554 41.7558C77.1663 41.8319 77.101 41.8863 77.0357 41.8863L75.6867 41.9298C75.6105 41.9298 75.5561 41.8754 75.5561 41.7993C75.5779 41.4838 75.5888 41.1139 75.5888 40.6678Z"
    fill="currentColor" />
  <path
    d="M82.073 40.6678C82.073 40.1565 82.0838 39.6125 82.0838 39.0359C82.0838 38.4593 82.0838 37.8718 82.0838 37.2734V35.772C82.0838 35.6958 82.1491 35.6414 82.2144 35.6523C82.6931 35.685 83.0304 35.6958 83.2371 35.6958C83.4655 35.6958 83.607 35.6958 83.6614 35.6958C83.6614 35.7067 83.6614 35.7394 83.6505 35.7938C83.6505 35.8264 83.6505 35.8808 83.6396 35.957C83.6396 36.0549 83.7375 36.1201 83.8246 36.0766C83.9225 36.0222 84.0204 35.9787 84.1074 35.9461C84.2597 35.8917 84.4338 35.8482 84.6296 35.8373C85.141 35.7938 85.5544 35.8482 85.8699 36.0222C86.1854 36.1963 86.4357 36.4357 86.6206 36.7512C86.7947 37.0667 86.9252 37.4366 86.9796 37.8609C87.034 38.2852 87.0776 38.7312 87.0776 39.1991C87.0776 39.6669 87.0558 40.1347 87.0123 40.6243C86.9796 41.0595 86.947 41.462 86.9252 41.8428C86.9252 41.9081 86.86 41.9625 86.7947 41.9625L85.3695 41.9081C85.2933 41.9081 85.2389 41.8428 85.2498 41.7666C85.3695 40.918 85.4456 40.1673 85.4891 39.4928C85.5326 38.7856 85.5 38.209 85.4021 37.7738C85.3042 37.3387 85.1083 37.0558 84.8255 36.9252C84.5535 36.8056 84.1727 36.86 83.6722 37.0993C83.6287 37.1211 83.607 37.1646 83.5961 37.2081C83.5852 37.491 83.5743 37.8391 83.5743 38.2525C83.5635 38.6986 83.5635 39.1664 83.5743 39.6234C83.5743 40.0912 83.5852 40.5264 83.5961 40.9398C83.607 41.2771 83.6178 41.5491 83.6396 41.7558C83.6505 41.8319 83.5852 41.8863 83.5199 41.8863L82.1709 41.9298C82.0947 41.9298 82.0403 41.8754 82.0403 41.7993C82.0621 41.4838 82.0621 41.1139 82.073 40.6678Z"
    fill="currentColor" />
  <path
    d="M94.3342 37.1428C94.356 37.0231 94.4974 36.9687 94.5954 37.0449C94.8891 37.2625 95.0741 37.5562 95.2699 37.8282C95.531 38.1764 95.6833 38.2417 96.0097 37.937C96.2708 37.6868 96.4884 37.3822 96.6734 37.0775C96.8039 36.86 96.9127 36.8382 97.0759 37.0014C97.25 37.1755 97.4132 37.3604 97.5655 37.5671C97.8375 37.937 97.8919 37.9588 98.3379 37.8609C98.871 37.7412 99.3932 37.7521 99.8937 37.9588C100.057 38.0241 100.024 38.2852 99.8502 38.2852C98.3488 38.2308 98.2944 38.8074 97.881 38.9815C97.6199 39.0794 97.4132 38.9162 97.25 38.6768C97.0324 38.3505 96.9562 38.4049 96.6842 38.7095C96.3578 39.0794 95.9879 39.4167 95.5963 39.7104C95.2155 39.9824 94.8347 39.0794 94.7912 39.0032C94.7368 38.9162 94.6062 38.8944 94.5301 38.9706C94.4757 39.025 94.4322 39.0685 94.3778 39.1229C93.9208 39.6886 93.3551 40.0477 92.5826 40.2435C91.3532 40.5481 90.113 39.743 89.928 38.4919C89.928 38.4701 89.9171 38.4375 89.9171 38.4157C89.8519 37.8282 90.0151 37.3278 90.7113 36.9905C91.2227 36.7512 91.4947 36.1854 91.6252 35.587C91.7231 35.141 91.8537 35.1301 92.2454 35.3477C92.9743 35.7502 93.3768 36.403 93.5944 37.1646C93.7685 37.763 93.3768 38.394 92.8002 38.5572C92.3215 38.6877 91.8646 38.3831 91.9299 37.9479C91.9516 37.8174 92.093 37.6977 92.1801 37.578C92.2018 37.5562 92.2127 37.5236 92.2236 37.5018C92.278 37.4039 92.2236 37.2843 92.1257 37.2516C92.093 37.2407 92.0713 37.2407 92.0387 37.2407C91.734 37.2625 91.5273 37.4366 91.3968 37.6977C91.2336 38.0241 91.3641 38.3178 91.56 38.5572C92.2562 39.3731 93.0287 39.2208 93.6923 38.5789C94.1167 38.1655 94.2254 37.6542 94.3342 37.1428Z"
    fill="currentColor" />
  <path
    d="M5.66578 37.1428C5.64402 37.0231 5.50258 36.9687 5.40467 37.0449C5.11092 37.2625 4.92597 37.5562 4.73013 37.8282C4.46902 38.1764 4.31671 38.2417 3.99032 37.937C3.72921 37.6868 3.51162 37.3822 3.32667 37.0775C3.19611 36.86 3.08732 36.8382 2.92412 37.0014C2.75005 37.1755 2.58686 37.3604 2.43454 37.5671C2.16256 37.937 2.10816 37.9588 1.6621 37.8609C1.129 37.7412 0.606779 37.7521 0.106319 37.9588C-0.0568748 38.0241 -0.0242368 38.2852 0.149836 38.2852C1.65122 38.2308 1.70561 38.8074 2.11904 38.9815C2.38015 39.0794 2.58686 38.9162 2.75005 38.6768C2.96764 38.3505 3.0438 38.4049 3.31579 38.7095C3.64218 39.0794 4.01208 39.4167 4.40375 39.7104C4.78453 39.9824 5.16532 39.0794 5.20883 39.0032C5.26323 38.9162 5.39379 38.8944 5.46994 38.9706C5.52434 39.025 5.57874 39.0685 5.62226 39.1229C6.0792 39.6886 6.64494 40.0477 7.41739 40.2435C8.64678 40.5481 9.88705 39.743 10.072 38.4919C10.072 38.4701 10.0829 38.4375 10.0829 38.4157C10.1482 37.8282 9.98496 37.3278 9.28867 36.9905C8.77733 36.7512 8.50534 36.1854 8.37479 35.587C8.27687 35.141 8.1572 35.1301 7.75465 35.3477C7.02572 35.7502 6.62318 36.403 6.40559 37.1646C6.23151 37.763 6.62318 38.394 7.19979 38.5572C7.6785 38.6877 8.13544 38.3831 8.07016 37.9479C8.0484 37.8174 7.90697 37.6977 7.81993 37.578C7.80905 37.5562 7.78729 37.5236 7.77641 37.5018C7.72201 37.4039 7.77641 37.2843 7.87433 37.2516C7.90697 37.2407 7.92873 37.2407 7.96136 37.2407C8.26599 37.2625 8.4727 37.4366 8.60326 37.6977C8.76645 38.0241 8.6359 38.3178 8.44006 38.5572C7.73289 39.3731 6.97132 39.2208 6.31855 38.5789C5.89425 38.1655 5.77457 37.6542 5.66578 37.1428Z"
    fill="currentColor" />
  <path
    d="M91.6906 28.3631C89.9716 28.0584 83.4004 26.7964 76.0566 24.0003C76.8835 23.4129 76.4157 22.314 76.6659 21.8244C77.0684 21.0411 79.6687 19.8444 79.6687 19.8444C75.2624 19.8661 74.3921 22.5534 74.3921 22.673C74.3921 22.7601 74.218 23.0647 74.0113 23.1953C73.3912 22.945 72.771 22.673 72.1509 22.401C73.1953 21.8462 72.6513 20.6494 72.9233 20.1272C73.3259 19.3439 75.9261 18.1471 75.9261 18.1471C71.5199 18.1689 70.6495 20.8562 70.6495 20.9758C70.6495 21.0629 70.4537 21.3893 70.247 21.5198C68.9958 20.9106 67.7555 20.2578 66.5479 19.5615C63.197 17.6249 60.3901 15.7863 58.1054 14.1652C58.1598 14.1217 58.225 14.0891 58.2686 14.0455C58.954 13.4798 59.2151 12.5877 59.0192 11.4018L57.9313 11.5541L58.0945 11.0754C58.1054 11.0537 58.7908 9.00831 57.4743 7.77892C57.1588 8.44257 56.3646 9.5958 54.5042 10.2812C54.6565 10.5967 54.7653 10.934 54.8197 11.293C56.0709 11.1951 56.7563 10.6946 56.7672 10.6838L57.3329 10.2595L57.4091 10.8905C57.42 10.9449 57.5614 12.3266 56.691 13.1534C56.4952 13.012 56.3102 12.8706 56.1253 12.7291C56.4626 12.3919 56.5931 11.9023 56.6366 11.4997C56.2558 11.6629 55.7119 11.8261 55.0373 11.9023C51.5341 9.18238 49.9239 7.44165 49.9239 7.44165C49.9239 7.44165 48.3138 9.1715 44.8214 11.8914C44.2013 11.8152 43.7117 11.652 43.3527 11.4997C43.3853 11.8588 43.4941 12.3266 43.7987 12.6638C43.6138 12.8053 43.4288 12.9467 43.233 13.0881C42.4388 12.2504 42.5802 10.9449 42.5911 10.8905L42.6673 10.2595L43.233 10.6838C43.2439 10.6838 43.9402 11.1951 45.1804 11.293C45.2348 10.934 45.3436 10.5967 45.4959 10.2812C43.6355 9.58492 42.8413 8.44257 42.5258 7.77892C41.2094 9.00831 41.8948 11.0537 41.9057 11.0754L42.0689 11.5432L40.9809 11.3909C40.7851 12.5768 41.0462 13.4689 41.7316 14.0347C41.7643 14.0564 41.7969 14.0782 41.8187 14.0999C39.5122 15.7428 36.6835 17.5923 33.3 19.5615C32.0923 20.2578 30.8521 20.9106 29.6118 21.5198C29.4051 21.3893 29.2201 21.0629 29.2201 20.9867C29.2201 20.8779 28.3498 18.1907 23.9435 18.158C23.9435 18.158 26.5437 19.3548 26.9463 20.1381C27.2074 20.6603 26.6743 21.8462 27.7079 22.401C27.0877 22.673 26.4676 22.945 25.8475 23.1953C25.6516 23.0538 25.4775 22.7601 25.4775 22.673C25.4775 22.5642 24.6072 19.877 20.201 19.8444C20.201 19.8444 22.8012 21.0411 23.2037 21.8244C23.4539 22.314 22.9861 23.4129 23.8021 24.0003C16.6325 26.7311 10.2135 28.004 8.29871 28.3413C8.16816 27.9061 7.12372 25.6105 3.04388 25.5888C3.04388 25.5888 5.6441 26.7855 6.04664 27.5688C6.38391 28.2216 5.42651 29.9623 8.00496 30.1147C8.15728 30.1255 8.30959 30.1255 8.46191 30.1255C8.47279 30.1255 8.48367 30.1255 8.48367 30.1255C9.06028 30.1038 9.59338 29.995 10.0721 29.8318C14.5327 28.9723 24.6072 26.655 33.3108 21.9659C39.2076 18.789 43.4071 15.9277 46.1161 13.8824C46.127 13.8824 46.1378 13.8715 46.1378 13.8715C46.1378 13.8715 46.1378 13.8715 46.127 13.8715C48.7163 11.9132 49.9239 10.7055 49.9239 10.7055C49.9239 10.7055 54.9503 15.7428 66.537 21.9767C75.5236 26.8182 85.957 29.1246 90.1892 29.9188C90.5265 30.0167 90.8964 30.082 91.288 30.1147C91.3207 30.1255 91.3642 30.1255 91.3968 30.1364L91.4077 30.1255C91.6035 30.1364 91.8103 30.1364 92.017 30.1255C94.5845 29.9841 93.6271 28.2325 93.9644 27.5797C94.367 26.7964 96.9672 25.5996 96.9672 25.5996C92.8003 25.5996 91.7885 28.004 91.6906 28.3631Z"
    fill="currentColor" />
  <path
    d="M46.66 9.3673C46.9864 8.96476 47.3346 8.58398 47.6827 8.23583C47.2802 7.47426 46.9538 6.41894 47.2366 5.28747C47.5304 4.15599 48.4008 3.19859 49.8151 2.43702L49.9892 2.34999L50.1632 2.43702C51.5776 3.18771 52.448 4.14511 52.7417 5.27659C53.0354 6.39718 52.7091 7.4525 52.3065 8.21407C52.6547 8.56222 53.0137 8.943 53.351 9.35642C54.1234 8.62749 55.1134 7.41986 55.1243 5.99464L54.0472 6.27751L54.1125 5.69001C54.1234 5.5921 54.2975 3.39442 52.0237 1.92568L52.0128 1.9148C51.719 1.70809 50.6093 0.881245 50.0109 0C49.4126 0.881245 48.292 1.70809 48.0091 1.9148L47.9982 1.92568C45.7026 3.4053 45.9093 5.66825 45.9093 5.69001L45.9637 6.27751L44.8867 5.99464C44.8975 7.44162 45.8876 8.63837 46.66 9.3673Z"
    fill="currentColor" />
  <path
    d="M49.9892 3.27478C48.8686 3.9058 48.1941 4.65649 47.9765 5.51597C47.7698 6.2993 47.9874 7.07175 48.2703 7.67012C48.9774 6.97383 50.0001 6.32106 50.0001 5.83148C50.0001 6.32106 51.0337 6.96295 51.73 7.64837C52.0128 7.04999 52.2087 6.28842 52.0128 5.51597C51.7844 4.65649 51.1098 3.9058 49.9892 3.27478Z"
    fill="currentColor" />
  <path
    d="M50.0218 23.8806C49.6193 23.8806 49.2167 23.848 48.8251 23.7718C48.8142 23.7718 48.6401 23.7392 48.3572 23.6413C48.0961 24.1635 48.0417 24.6422 48.2049 25.1209C48.5313 26.0892 49.6193 26.742 50.0218 26.9596C50.4352 26.742 51.5232 26.0783 51.8387 25.1209C52.0019 24.6422 51.9475 24.1526 51.6864 23.6413C51.4144 23.7283 51.2294 23.761 51.2186 23.7718C50.816 23.8371 50.4244 23.8806 50.0218 23.8806Z"
    fill="currentColor" />
  <path
    d="M52.1869 27.4818C52.6112 27.4165 54.7109 27.014 54.8524 25.3059C54.9394 24.2615 54.5695 23.0865 53.2966 22.8471C52.9919 23.0647 52.6873 23.2388 52.4045 23.3693C52.7308 24.0439 52.7852 24.7184 52.5676 25.382C52.0563 26.8943 50.2612 27.7212 50.185 27.7538L50.0327 27.8299L49.8804 27.7538C49.8042 27.7212 47.9982 26.8943 47.4978 25.382C47.2802 24.7293 47.3346 24.0547 47.661 23.3693C47.3781 23.2388 47.0735 23.0647 46.7688 22.8471C45.4959 23.0865 45.126 24.2615 45.2131 25.3059C45.3545 27.014 47.4651 27.4274 47.8786 27.4818C49.0644 27.6668 49.6193 28.4718 50.0436 29.2008C50.4352 28.4718 51.001 27.6668 52.1869 27.4818Z"
    fill="currentColor" />
  <path
    d="M55.9947 24.7292C56.06 24.7727 56.1253 24.8163 56.2015 24.8598C56.2776 24.9033 56.3538 24.9468 56.4299 24.9794C56.517 25.0121 56.5931 25.0556 56.6802 25.0991C56.7672 25.1318 56.8542 25.1644 56.9521 25.197C57.1371 25.2732 57.3329 25.3058 57.5288 25.3602C57.6267 25.382 57.7355 25.3929 57.8334 25.4146C57.9313 25.4255 58.0401 25.4473 58.138 25.4581C58.2359 25.4581 58.3447 25.4581 58.4535 25.469C58.5623 25.4799 58.6602 25.4799 58.7582 25.469C58.8561 25.4581 58.9649 25.4581 59.0628 25.4473C59.1607 25.4364 59.2586 25.4364 59.3565 25.4146C59.5524 25.382 59.7373 25.3494 59.9114 25.3167C60.0855 25.2732 60.2487 25.2188 60.3901 25.1862C60.4662 25.1644 60.5315 25.1426 60.6077 25.1209C60.673 25.0991 60.7382 25.0665 60.7926 25.0447C60.9123 25.0012 61.0102 24.9577 61.0973 24.9251C61.2605 24.8598 61.3584 24.8163 61.3584 24.8163L61.3257 24.751C61.3257 24.751 61.2931 24.751 61.2387 24.7401C61.1843 24.7401 61.1081 24.7292 61.0102 24.7292C60.9123 24.7292 60.8035 24.7292 60.673 24.7292C60.6077 24.7292 60.5424 24.7401 60.4771 24.7401C60.401 24.7401 60.3357 24.7401 60.2595 24.7401C60.1072 24.7401 59.944 24.751 59.7808 24.7619C59.6176 24.7619 59.4436 24.7619 59.2695 24.7619C59.0954 24.7727 58.9105 24.751 58.7364 24.751C58.6494 24.7619 58.5514 24.7401 58.4644 24.7401C58.3774 24.7401 58.2795 24.7292 58.1924 24.7292C58.1054 24.7292 58.0183 24.7075 57.9313 24.7075C57.8443 24.6966 57.7464 24.6966 57.6702 24.6857C57.4961 24.6531 57.322 24.6422 57.1589 24.5987C57.0718 24.5769 56.9957 24.566 56.9086 24.5551C56.8325 24.5334 56.7563 24.5116 56.6693 24.5007C56.5822 24.4899 56.517 24.4572 56.4408 24.4355C56.3646 24.4137 56.2885 24.4028 56.2232 24.3702C56.1579 24.3484 56.0927 24.3267 56.0274 24.3049C55.9621 24.2832 55.9077 24.2614 55.8424 24.2396C55.7771 24.2179 55.7336 24.1961 55.6792 24.1852L55.5704 24.4464C55.5922 24.4681 55.614 24.479 55.6357 24.5007C55.6901 24.5443 55.7336 24.5878 55.7989 24.6313C55.8642 24.6422 55.9295 24.6857 55.9947 24.7292Z"
    fill="currentColor" />
  <path
    d="M39.4034 25.0992C39.4686 25.121 39.5448 25.1427 39.621 25.1645C39.7733 25.208 39.9256 25.2515 40.0997 25.295C40.2737 25.3277 40.4587 25.3603 40.6545 25.3929C40.7524 25.4147 40.8504 25.4147 40.9483 25.4256C41.0462 25.4365 41.1441 25.4365 41.2529 25.4473C41.3508 25.4582 41.4596 25.4582 41.5575 25.4473C41.6554 25.4473 41.7642 25.4473 41.873 25.4365C41.9709 25.4365 42.0797 25.4147 42.1777 25.3929C42.2756 25.3712 42.3844 25.3712 42.4823 25.3386C42.6781 25.2842 42.8848 25.2515 43.0589 25.1754C43.1459 25.1427 43.2439 25.1101 43.3309 25.0774C43.4179 25.0339 43.505 25.0013 43.5811 24.9578C43.6682 24.9251 43.7334 24.8707 43.8096 24.8381C43.8858 24.7946 43.951 24.7619 44.0163 24.7075C44.0816 24.664 44.1469 24.6205 44.2013 24.577C44.2557 24.5335 44.3101 24.4899 44.3536 24.4464C44.3753 24.4355 44.3862 24.4247 44.408 24.4029L44.0598 24.218C44.0272 24.2288 43.9945 24.2397 43.9619 24.2506C43.8966 24.2724 43.8314 24.2941 43.7661 24.3159C43.7008 24.3376 43.6246 24.3594 43.5485 24.3812C43.4723 24.4029 43.4071 24.4247 43.32 24.4464C43.2439 24.4573 43.1677 24.4791 43.0807 24.5008C43.0045 24.5226 42.9175 24.5335 42.8304 24.5443C42.6672 24.5879 42.4932 24.5987 42.3191 24.6314C42.2321 24.6531 42.145 24.6423 42.058 24.6531C41.9709 24.664 41.8839 24.6749 41.7969 24.6749C41.7098 24.6749 41.6119 24.6858 41.5249 24.6858C41.4378 24.6858 41.3399 24.7075 41.2529 24.6967C41.0679 24.6858 40.8939 24.7075 40.7198 24.7075C40.5457 24.6967 40.3717 24.6967 40.2085 24.7075C40.0453 24.6967 39.8821 24.6858 39.7298 24.6858C39.6536 24.6858 39.5774 24.6858 39.5122 24.6858C39.4469 24.6858 39.3816 24.6749 39.3163 24.6749C39.1858 24.6749 39.077 24.6749 38.9791 24.6749C38.8812 24.6749 38.805 24.6858 38.7506 24.6858C38.6962 24.6858 38.6636 24.6967 38.6636 24.6967L38.6309 24.7619C38.6309 24.7619 38.7288 24.7946 38.892 24.8707C38.9791 24.9034 39.077 24.9469 39.1967 24.9904C39.2728 25.0448 39.3381 25.0774 39.4034 25.0992Z"
    fill="currentColor" />
  <path
    d="M50.7508 16.983C50.4571 16.711 50.2068 16.4717 50.011 16.2323C49.8152 16.4717 49.5541 16.711 49.2712 16.983C48.5314 17.6793 47.6066 18.5388 47.5413 19.5288C47.4543 21.0084 49.021 21.3675 49.2603 21.4219H50.7726C51.0119 21.3675 52.5786 20.9975 52.4915 19.5288C52.4154 18.5388 51.4906 17.6793 50.7508 16.983Z"
    fill="currentColor" />
  <path
    d="M54.0799 19.5397C53.9276 17.6576 52.4697 16.3303 51.3056 15.2641C50.7943 14.7963 50.3156 14.3611 50.0001 13.9368C49.6846 14.372 49.2168 14.8071 48.6945 15.2641C47.5195 16.3303 46.0617 17.6576 45.9202 19.5397C45.6809 22.6078 48.836 23.2279 48.9665 23.2497C49.6519 23.3802 50.3482 23.3802 51.0336 23.2497C51.1751 23.2388 54.3193 22.6078 54.0799 19.5397ZM50.8378 22.0856H50.8052H49.1624C48.3137 21.9441 46.7253 21.2043 46.8341 19.4418C46.9103 18.1798 47.933 17.2224 48.7598 16.4499C49.1188 16.1127 50.0001 15.2641 50.0001 15.0791C50.0001 15.2641 50.8813 16.1127 51.2403 16.4499C52.0672 17.2224 53.0899 18.1798 53.166 19.4418C53.2748 21.2043 51.6864 21.9441 50.8378 22.0856Z"
    fill="currentColor" />
</svg>