<svg
  class="h-10 w-10 sm:h-12 sm:w-12 text-gray-950 dark:text-gray-950 bg-gradient-to-br from-violet-600 to-violet-400 rounded-full p-1"
  viewBox="0 0 512 512" version="1.1" xmlns="http://www.w3.org/2000/svg" xmlns:xlink="http://www.w3.org/1999/xlink"
  fill="currentColor">
  <g transform="translate(0.000000,512.000000) scale(0.100000,-0.100000)">
    <path
      d="M3158 3821 c-200 -64 -365 -285 -516 -691 -28 -74 -78 -222 -113 -328 l-62 -194 -73 -63 c-198 -173 -332 -228 -559 -229 -135 -1 -197 11 -300 59 -102 47 -179 110 -317 258 -68 73 -160 170 -205 217 -45 47 -127 134 -182 194 -55 59 -123 126 -153 149 -91 69 -198 107 -301 107 -51 0 -62 -4 -88 -29 -38 -38 -40 -97 -6 -137 19 -21 37 -29 87 -36 89 -12 160 -47 231 -115 123 -117 220 -297 399 -738 188 -463 300 -666 444 -803 117 -111 236 -162 377 -162 139 0 247 48 352 158 148 156 259 389 418 880 l63 194 79 69 c154 133 259 187 418 215 211 37 404 -8 566 -130 35 -26 118 -107 185 -179 67 -73 156 -166 198 -209 41 -42 120 -126 175 -187 178 -198 303 -271 468 -271 51 0 62 4 88 29 22 23 29 39 29 70 0 64 -30 90 -121 106 -96 16 -148 43 -222 114 -120 114 -218 295 -397 736 -189 466 -300 666 -444 803 -79 74 -164 125 -251 148 -71 19 -198 17 -267 -5z m266 -214 c98 -45 219 -182 296 -336 l22 -44 -44 35 c-95 77 -200 121 -328 139 -128 18 -288 -17 -392 -86 -21 -14 -40 -25 -43 -25 -8 0 54 109 101 176 52 75 102 119 168 151 64 30 139 27 220 -10z m-3 -427 c107 -33 221 -124 309 -246 35 -50 34 -52 -12 -24 -106 62 -268 100 -426 100 -148 0 -272 -24 -396 -76 -14 -5 -5 12 26 53 142 184 314 251 499 193z m-2019 -970 c106 -62 268 -100 426 -100 148 0 272 24 396 76 29 11 -62 -104 -121 -155 -119 -103 -260 -135 -400 -93 -86 27 -147 65 -220 140 -55 56 -130 152 -119 152 3 0 20 -9 38 -20z m118 -418 c196 -108 448 -102 623 14 22 14 40 24 42 22 1 -2 -21 -42 -49 -90 -73 -126 -133 -190 -211 -229 -57 -28 -72 -31 -120 -26 -77 8 -155 47 -221 109 -55 52 -141 173 -184 257 l-22 44 44 -35 c23 -20 68 -49 98 -66z">
    </path>
  </g>
</svg>