<svg class="h-8 sm:h-10 w-auto text-color-accent" viewBox="0 0 472 80" version="1.1" xmlns="http://www.w3.org/2000/svg"
  xmlns:xlink="http://www.w3.org/1999/xlink" fill="currentColor">
  <g transform="translate(0.000000, -364.000000)">
    <path
      d="M30,364 C46.5685425,364 60,377.431458 60,394 C60,410.568542 46.5685425,424 30,424 C23.2463038,424 17.0138512,421.768291 11.9998649,418.002096 L12,438 C12,441.313708 9.3137085,444 6,444 C2.6862915,444 4.05812251e-16,441.313708 0,438 L0,394 C0,377.431458 13.4314575,364 30,364 Z M30,376 C20.0588745,376 12,384.058875 12,394 C12,403.941125 20.0588745,412 30,412 C39.9411255,412 48,403.941125 48,394 C48,384.058875 39.9411255,376 30,376 Z M198,364 C201.313708,364 204,366.686292 204,370 L204,414 C204,430.568542 190.568542,444 174,444 C157.431458,444 144,430.568542 144,414 C144,397.431458 157.431458,384 174,384 C180.754144,384 186.986975,386.232005 192.001132,389.998654 L192,370 C192,366.686292 194.686292,364 198,364 Z M174,396 C164.058875,396 156,404.058875 156,414 C156,423.941125 164.058875,432 174,432 C183.941125,432 192,423.941125 192,414 C192,404.058875 183.941125,396 174,396 Z M310.000498,400.394325 L310,438 C310,441.313708 307.313708,444 304,444 C300.686292,444 298,441.313708 298,438 L297.999059,400.394069 C299.764312,401.415427 301.813889,402 304,402 C306.185929,402 308.235345,401.415524 310.000498,400.394325 Z M304,384 C307.313708,384 310,386.686292 310,390 C310,393.313708 307.313708,396 304,396 C300.686292,396 298,393.313708 298,390 C298,386.686292 300.686292,384 304,384 Z M394,390 C394,393.313708 391.313708,396 388,396 L352,396 L352,396 C348.686292,396 346,398.686292 346,402 C346,405.313708 348.686292,408 352,408 L376,408 C385.941125,408 394,416.058875 394,426 C394,435.941125 385.941125,444 376,444 L340,444 C336.686292,444 334,441.313708 334,438 C334,434.686292 336.686292,432 340,432 L376,432 L376,432 C379.313708,432 382,429.313708 382,426 C382,422.686292 379.313708,420 376,420 L352,420 C342.058875,420 334,411.941125 334,402 C334,392.058875 342.058875,384 352,384 L388,384 C391.313708,384 394,386.686292 394,390 Z M462,414 C462,417.238397 459.434425,419.877572 456.224938,419.995862 L456,420 L424,420 L424,426 C424,429.238397 426.565575,431.877572 429.775062,431.995862 L430,432 L466,432 C469.313708,432 472,434.686292 472,438 C472,441.313708 469.313708,444 466,444 L430,444 C420.058875,444 412,435.941125 412,426 L412,402 C412,392.058875 420.058875,384 430,384 L466,384 C469.313708,384 472,386.686292 472,390 C472,393.313708 469.313708,396 466,396 L430,396 C426.686292,396 424,398.686292 424,402 L424,408 L456,408 C459.313708,408 462,410.686292 462,414 Z M102,384 C118.568542,384 132,397.431458 132,414 C132,430.568542 118.568542,444 102,444 C85.4314575,444 72,430.568542 72,414 C72,397.431458 85.4314575,384 102,384 Z M102,396 C92.0588745,396 84,404.058875 84,414 C84,423.941125 92.0588745,432 102,432 C111.941125,432 120,423.941125 120,414 C120,404.058875 111.941125,396 102,396 Z M274,384 C277.313708,384 280,386.686292 280,390 L280,426 C280,435.941125 271.941125,444 262,444 C257.390103,444 253.184958,442.267051 250.000476,439.417065 C246.815918,442.26669 242.610377,444 238,444 C228.058875,444 220,435.941125 220,426 L220,390 C220,386.686292 222.686292,384 226,384 C229.313708,384 232,386.686292 232,390 L232,426 C232,429.313708 234.686292,432 238,432 C241.313708,432 244,429.313708 244,426 L244,400 C244,396.686292 246.686292,394 250,394 C253.313708,394 256,396.686292 256,400 L256,426 C256,429.313708 258.686292,432 262,432 C265.313708,432 268,429.313708 268,426 L268,390 C268,386.686292 270.686292,384 274,384 Z"
      id="形状结合备份-5"></path>
  </g>
</svg>